<mxfile host="www.draw.io" modified="2020-03-23T02:22:31.291Z" agent="Mozilla/5.0 (Macintosh; Intel Mac OS X 10_13_6) AppleWebKit/537.36 (KHTML, like Gecko) Chrome/80.0.3987.149 Safari/537.36" etag="HjRLV2rDR44W4zBtSfpp" version="12.8.8" type="github">
  <diagram id="d-cUwv-51pwWqw412W-w" name="Page-1">
    <mxGraphModel dx="1115" dy="623" grid="1" gridSize="10" guides="1" tooltips="1" connect="1" arrows="1" fold="1" page="1" pageScale="1" pageWidth="827" pageHeight="1169" math="0" shadow="0">
      <root>
        <mxCell id="0" />
        <mxCell id="1" parent="0" />
        <mxCell id="-JSyuyc6FNK8s3EoQKlf-1" value="PAD类别 IPad&lt;br&gt;CBOH_IPAD_3CH" style="rounded=1;whiteSpace=wrap;html=1;" parent="1" vertex="1">
          <mxGeometry x="219" y="40" width="146" height="60" as="geometry" />
        </mxCell>
        <mxCell id="-JSyuyc6FNK8s3EoQKlf-2" value="菜品类别 Marsaleclass&lt;br&gt;BD_MARSALECLASS" style="rounded=1;whiteSpace=wrap;html=1;" parent="1" vertex="1">
          <mxGeometry x="50" y="40" width="146" height="60" as="geometry" />
        </mxCell>
        <mxCell id="-JSyuyc6FNK8s3EoQKlf-4" value="辅助类别 Typoth&lt;br&gt;CBOH_TYPOTH_3CH" style="rounded=1;whiteSpace=wrap;html=1;" parent="1" vertex="1">
          <mxGeometry x="380" y="40" width="160" height="60" as="geometry" />
        </mxCell>
        <mxCell id="-JSyuyc6FNK8s3EoQKlf-5" value="菜品组 PubitemTeam&lt;br&gt;CBOH_PUBITEMTEAM_3CH" style="rounded=1;whiteSpace=wrap;html=1;" parent="1" vertex="1">
          <mxGeometry x="74" y="280" width="180" height="60" as="geometry" />
        </mxCell>
        <mxCell id="-JSyuyc6FNK8s3EoQKlf-9" value="门店品牌&amp;nbsp;Brand&lt;br&gt;CBOH_BRAND_3CH" style="rounded=1;whiteSpace=wrap;html=1;" parent="1" vertex="1">
          <mxGeometry x="770" y="270" width="130" height="60" as="geometry" />
        </mxCell>
        <mxCell id="-JSyuyc6FNK8s3EoQKlf-14" value="菜品 PubItem&lt;br&gt;CBOH_PUBITEM_3CH" style="rounded=1;whiteSpace=wrap;html=1;" parent="1" vertex="1">
          <mxGeometry x="375" y="170" width="170" height="60" as="geometry" />
        </mxCell>
        <mxCell id="-JSyuyc6FNK8s3EoQKlf-15" value="" style="endArrow=none;html=1;exitX=0.5;exitY=0;exitDx=0;exitDy=0;entryX=0.5;entryY=1;entryDx=0;entryDy=0;" parent="1" source="-JSyuyc6FNK8s3EoQKlf-14" target="-JSyuyc6FNK8s3EoQKlf-4" edge="1">
          <mxGeometry width="50" height="50" relative="1" as="geometry">
            <mxPoint x="468.5999999999999" y="167" as="sourcePoint" />
            <mxPoint x="468.5999999999999" y="100" as="targetPoint" />
          </mxGeometry>
        </mxCell>
        <mxCell id="-JSyuyc6FNK8s3EoQKlf-18" value="网站展示类别 FdItemType&lt;br&gt;FD_ITEMTYPE" style="rounded=1;whiteSpace=wrap;html=1;" parent="1" vertex="1">
          <mxGeometry x="565" y="40" width="170" height="60" as="geometry" />
        </mxCell>
        <mxCell id="-JSyuyc6FNK8s3EoQKlf-19" value="菜品标签&amp;nbsp;DishLabel&lt;br&gt;CBOH_DISH_LABEL_3CH" style="rounded=1;whiteSpace=wrap;html=1;" parent="1" vertex="1">
          <mxGeometry x="760" y="40" width="160" height="60" as="geometry" />
        </mxCell>
        <mxCell id="-JSyuyc6FNK8s3EoQKlf-20" value="附加项 Redfine&lt;br&gt;CBOH_REDEFINE_3CH" style="rounded=1;whiteSpace=wrap;html=1;" parent="1" vertex="1">
          <mxGeometry x="280" y="510" width="190" height="60" as="geometry" />
        </mxCell>
        <mxCell id="-JSyuyc6FNK8s3EoQKlf-21" value="" style="endArrow=none;html=1;entryX=0.5;entryY=1;entryDx=0;entryDy=0;exitX=1;exitY=0;exitDx=0;exitDy=0;" parent="1" source="-JSyuyc6FNK8s3EoQKlf-14" target="-JSyuyc6FNK8s3EoQKlf-19" edge="1">
          <mxGeometry width="50" height="50" relative="1" as="geometry">
            <mxPoint x="494" y="190" as="sourcePoint" />
            <mxPoint x="544" y="140" as="targetPoint" />
          </mxGeometry>
        </mxCell>
        <mxCell id="-JSyuyc6FNK8s3EoQKlf-34" value="1" style="endArrow=open;html=1;endSize=12;startArrow=diamondThin;startSize=14;startFill=0;edgeStyle=orthogonalEdgeStyle;align=left;verticalAlign=bottom;exitX=0.47;exitY=-0.047;exitDx=0;exitDy=0;exitPerimeter=0;" parent="1" source="-JSyuyc6FNK8s3EoQKlf-5" edge="1">
          <mxGeometry x="0.0722" y="40" relative="1" as="geometry">
            <mxPoint x="230" y="199.5999999999999" as="sourcePoint" />
            <mxPoint x="159" y="230" as="targetPoint" />
            <Array as="points" />
            <mxPoint x="40" y="40" as="offset" />
          </mxGeometry>
        </mxCell>
        <mxCell id="-JSyuyc6FNK8s3EoQKlf-35" value="N" style="text;html=1;align=center;verticalAlign=middle;resizable=0;points=[];autosize=1;" parent="1" vertex="1">
          <mxGeometry x="825" y="105" width="20" height="20" as="geometry" />
        </mxCell>
        <mxCell id="-JSyuyc6FNK8s3EoQKlf-36" value="1" style="text;html=1;align=center;verticalAlign=middle;resizable=0;points=[];autosize=1;" parent="1" vertex="1">
          <mxGeometry x="550" y="150" width="20" height="20" as="geometry" />
        </mxCell>
        <mxCell id="-JSyuyc6FNK8s3EoQKlf-39" value="菜品门店编码 PubItemCode&lt;br&gt;CBOH_PUBITEMCODE_3CH" style="rounded=1;whiteSpace=wrap;html=1;" parent="1" vertex="1">
          <mxGeometry x="747.5" y="170" width="170" height="55" as="geometry" />
        </mxCell>
        <mxCell id="-JSyuyc6FNK8s3EoQKlf-40" value="菜品组明细 PubitemTeamDetail&lt;br&gt;CBOH_PUBITEMTEAMDETAIL_3CH" style="rounded=1;whiteSpace=wrap;html=1;" parent="1" vertex="1">
          <mxGeometry x="50" y="170" width="210" height="60" as="geometry" />
        </mxCell>
        <mxCell id="-JSyuyc6FNK8s3EoQKlf-43" value="" style="endArrow=none;html=1;exitX=1;exitY=0.5;exitDx=0;exitDy=0;entryX=0;entryY=0.5;entryDx=0;entryDy=0;" parent="1" source="-JSyuyc6FNK8s3EoQKlf-40" target="-JSyuyc6FNK8s3EoQKlf-14" edge="1">
          <mxGeometry width="50" height="50" relative="1" as="geometry">
            <mxPoint x="420" y="240" as="sourcePoint" />
            <mxPoint x="470" y="190" as="targetPoint" />
          </mxGeometry>
        </mxCell>
        <mxCell id="-JSyuyc6FNK8s3EoQKlf-46" value="1" style="text;html=1;align=center;verticalAlign=middle;resizable=0;points=[];labelBackgroundColor=#ffffff;" parent="-JSyuyc6FNK8s3EoQKlf-43" vertex="1" connectable="0">
          <mxGeometry x="0.565" y="-2" relative="1" as="geometry">
            <mxPoint x="7.6" y="-12" as="offset" />
          </mxGeometry>
        </mxCell>
        <mxCell id="-JSyuyc6FNK8s3EoQKlf-45" value="1" style="text;html=1;align=center;verticalAlign=middle;resizable=0;points=[];autosize=1;" parent="1" vertex="1">
          <mxGeometry x="254" y="180" width="20" height="20" as="geometry" />
        </mxCell>
        <mxCell id="-JSyuyc6FNK8s3EoQKlf-47" value="" style="endArrow=none;html=1;entryX=0.5;entryY=1;entryDx=0;entryDy=0;" parent="1" source="-JSyuyc6FNK8s3EoQKlf-14" target="-JSyuyc6FNK8s3EoQKlf-2" edge="1">
          <mxGeometry width="50" height="50" relative="1" as="geometry">
            <mxPoint x="420" y="220" as="sourcePoint" />
            <mxPoint x="470" y="170" as="targetPoint" />
          </mxGeometry>
        </mxCell>
        <mxCell id="-JSyuyc6FNK8s3EoQKlf-48" value="" style="endArrow=none;html=1;entryX=0.5;entryY=1;entryDx=0;entryDy=0;exitX=0.25;exitY=0;exitDx=0;exitDy=0;" parent="1" source="-JSyuyc6FNK8s3EoQKlf-14" target="-JSyuyc6FNK8s3EoQKlf-1" edge="1">
          <mxGeometry width="50" height="50" relative="1" as="geometry">
            <mxPoint x="420" y="220" as="sourcePoint" />
            <mxPoint x="470" y="170" as="targetPoint" />
          </mxGeometry>
        </mxCell>
        <mxCell id="-JSyuyc6FNK8s3EoQKlf-49" value="" style="endArrow=none;html=1;entryX=0.472;entryY=0.997;entryDx=0;entryDy=0;entryPerimeter=0;exitX=0.75;exitY=0;exitDx=0;exitDy=0;" parent="1" source="-JSyuyc6FNK8s3EoQKlf-14" target="-JSyuyc6FNK8s3EoQKlf-18" edge="1">
          <mxGeometry width="50" height="50" relative="1" as="geometry">
            <mxPoint x="420" y="220" as="sourcePoint" />
            <mxPoint x="470" y="170" as="targetPoint" />
          </mxGeometry>
        </mxCell>
        <mxCell id="-JSyuyc6FNK8s3EoQKlf-50" value="" style="endArrow=none;html=1;entryX=1;entryY=0.5;entryDx=0;entryDy=0;exitX=1.075;exitY=1.05;exitDx=0;exitDy=0;exitPerimeter=0;" parent="1" source="-JSyuyc6FNK8s3EoQKlf-51" target="-JSyuyc6FNK8s3EoQKlf-14" edge="1">
          <mxGeometry width="50" height="50" relative="1" as="geometry">
            <mxPoint x="740" y="200" as="sourcePoint" />
            <mxPoint x="470" y="250" as="targetPoint" />
          </mxGeometry>
        </mxCell>
        <mxCell id="-JSyuyc6FNK8s3EoQKlf-51" value="N" style="text;html=1;align=center;verticalAlign=middle;resizable=0;points=[];autosize=1;" parent="1" vertex="1">
          <mxGeometry x="727.5" y="180" width="20" height="20" as="geometry" />
        </mxCell>
        <mxCell id="-JSyuyc6FNK8s3EoQKlf-52" value="1" style="text;html=1;align=center;verticalAlign=middle;resizable=0;points=[];autosize=1;" parent="1" vertex="1">
          <mxGeometry x="485" y="235" width="20" height="20" as="geometry" />
        </mxCell>
        <mxCell id="-JSyuyc6FNK8s3EoQKlf-53" value="" style="endArrow=none;html=1;entryX=0.5;entryY=1;entryDx=0;entryDy=0;" parent="1" target="-JSyuyc6FNK8s3EoQKlf-39" edge="1">
          <mxGeometry width="50" height="50" relative="1" as="geometry">
            <mxPoint x="833" y="270" as="sourcePoint" />
            <mxPoint x="835" y="250" as="targetPoint" />
          </mxGeometry>
        </mxCell>
        <mxCell id="-JSyuyc6FNK8s3EoQKlf-54" value="必选附加项 ProdcutReqAttac&lt;br&gt;CBOH_PRODCUTREQATTAC_3CH" style="rounded=1;whiteSpace=wrap;html=1;" parent="1" vertex="1">
          <mxGeometry x="50" y="410" width="200" height="60" as="geometry" />
        </mxCell>
        <mxCell id="-JSyuyc6FNK8s3EoQKlf-55" value="" style="endArrow=none;html=1;entryX=0.176;entryY=1.033;entryDx=0;entryDy=0;exitX=0.75;exitY=0;exitDx=0;exitDy=0;entryPerimeter=0;" parent="1" source="-JSyuyc6FNK8s3EoQKlf-54" target="-JSyuyc6FNK8s3EoQKlf-14" edge="1">
          <mxGeometry width="50" height="50" relative="1" as="geometry">
            <mxPoint x="420" y="340" as="sourcePoint" />
            <mxPoint x="470" y="290" as="targetPoint" />
          </mxGeometry>
        </mxCell>
        <mxCell id="-JSyuyc6FNK8s3EoQKlf-56" value="1" style="text;html=1;align=center;verticalAlign=middle;resizable=0;points=[];autosize=1;" parent="1" vertex="1">
          <mxGeometry x="394" y="235" width="20" height="20" as="geometry" />
        </mxCell>
        <mxCell id="-JSyuyc6FNK8s3EoQKlf-59" value="N" style="text;html=1;align=center;verticalAlign=middle;resizable=0;points=[];autosize=1;" parent="1" vertex="1">
          <mxGeometry x="210" y="390" width="20" height="20" as="geometry" />
        </mxCell>
        <mxCell id="-JSyuyc6FNK8s3EoQKlf-60" value="附加项设置中间表 ProductRedfine&lt;br&gt;CBOH_PRODUCTREDFINE_3CH" style="rounded=1;whiteSpace=wrap;html=1;" parent="1" vertex="1">
          <mxGeometry x="280" y="410" width="190" height="60" as="geometry" />
        </mxCell>
        <mxCell id="-JSyuyc6FNK8s3EoQKlf-62" value="" style="endArrow=none;html=1;exitX=0.5;exitY=0;exitDx=0;exitDy=0;entryX=0.341;entryY=1.033;entryDx=0;entryDy=0;entryPerimeter=0;" parent="1" source="-JSyuyc6FNK8s3EoQKlf-60" target="-JSyuyc6FNK8s3EoQKlf-14" edge="1">
          <mxGeometry width="50" height="50" relative="1" as="geometry">
            <mxPoint x="420" y="420" as="sourcePoint" />
            <mxPoint x="430" y="240" as="targetPoint" />
          </mxGeometry>
        </mxCell>
        <mxCell id="-JSyuyc6FNK8s3EoQKlf-64" value="1" style="text;html=1;align=center;verticalAlign=middle;resizable=0;points=[];autosize=1;" parent="1" vertex="1">
          <mxGeometry x="430" y="235" width="20" height="20" as="geometry" />
        </mxCell>
        <mxCell id="-JSyuyc6FNK8s3EoQKlf-65" value="N" style="text;html=1;align=center;verticalAlign=middle;resizable=0;points=[];autosize=1;" parent="1" vertex="1">
          <mxGeometry x="404" y="390" width="20" height="20" as="geometry" />
        </mxCell>
        <mxCell id="-JSyuyc6FNK8s3EoQKlf-66" value="" style="endArrow=none;html=1;entryX=0.5;entryY=1;entryDx=0;entryDy=0;" parent="1" target="-JSyuyc6FNK8s3EoQKlf-60" edge="1">
          <mxGeometry width="50" height="50" relative="1" as="geometry">
            <mxPoint x="375" y="510" as="sourcePoint" />
            <mxPoint x="190" y="480" as="targetPoint" />
          </mxGeometry>
        </mxCell>
        <mxCell id="-JSyuyc6FNK8s3EoQKlf-68" value="" style="endArrow=none;html=1;entryX=0;entryY=0.5;entryDx=0;entryDy=0;exitX=1;exitY=0.5;exitDx=0;exitDy=0;" parent="1" source="-JSyuyc6FNK8s3EoQKlf-54" target="-JSyuyc6FNK8s3EoQKlf-60" edge="1">
          <mxGeometry width="50" height="50" relative="1" as="geometry">
            <mxPoint x="140" y="530" as="sourcePoint" />
            <mxPoint x="190" y="480" as="targetPoint" />
          </mxGeometry>
        </mxCell>
        <mxCell id="-JSyuyc6FNK8s3EoQKlf-71" value="附加项" style="text;html=1;align=center;verticalAlign=middle;resizable=0;points=[];autosize=1;" parent="1" vertex="1">
          <mxGeometry x="389" y="310" width="50" height="20" as="geometry" />
        </mxCell>
        <mxCell id="-JSyuyc6FNK8s3EoQKlf-73" value="必选附加产品 ProdReqadd&lt;br&gt;CBOH_PRODREQADD_3CH" style="rounded=1;whiteSpace=wrap;html=1;" parent="1" vertex="1">
          <mxGeometry x="500" y="410" width="180" height="60" as="geometry" />
        </mxCell>
        <mxCell id="-JSyuyc6FNK8s3EoQKlf-74" value="" style="endArrow=none;html=1;entryX=0.25;entryY=0;entryDx=0;entryDy=0;" parent="1" source="-JSyuyc6FNK8s3EoQKlf-14" target="-JSyuyc6FNK8s3EoQKlf-73" edge="1">
          <mxGeometry width="50" height="50" relative="1" as="geometry">
            <mxPoint x="670" y="320" as="sourcePoint" />
            <mxPoint x="720" y="270" as="targetPoint" />
          </mxGeometry>
        </mxCell>
        <mxCell id="-JSyuyc6FNK8s3EoQKlf-76" value="1" style="text;html=1;align=center;verticalAlign=middle;resizable=0;points=[];autosize=1;" parent="1" vertex="1">
          <mxGeometry x="545" y="180" width="20" height="20" as="geometry" />
        </mxCell>
        <mxCell id="-JSyuyc6FNK8s3EoQKlf-77" value="N" style="text;html=1;align=center;verticalAlign=middle;resizable=0;points=[];autosize=1;" parent="1" vertex="1">
          <mxGeometry x="553" y="390" width="20" height="20" as="geometry" />
        </mxCell>
        <mxCell id="-JSyuyc6FNK8s3EoQKlf-80" value="附加产品中间表 Productadditional&lt;br&gt;CBOH_PRODUCTADDITIONAL_3CH" style="rounded=1;whiteSpace=wrap;html=1;" parent="1" vertex="1">
          <mxGeometry x="707.5" y="410" width="210" height="60" as="geometry" />
        </mxCell>
        <mxCell id="-JSyuyc6FNK8s3EoQKlf-81" value="" style="endArrow=none;html=1;exitX=1;exitY=0.5;exitDx=0;exitDy=0;entryX=0;entryY=0.5;entryDx=0;entryDy=0;" parent="1" source="-JSyuyc6FNK8s3EoQKlf-73" target="-JSyuyc6FNK8s3EoQKlf-80" edge="1">
          <mxGeometry width="50" height="50" relative="1" as="geometry">
            <mxPoint x="750" y="510" as="sourcePoint" />
            <mxPoint x="700" y="440" as="targetPoint" />
          </mxGeometry>
        </mxCell>
        <mxCell id="-JSyuyc6FNK8s3EoQKlf-82" value="" style="endArrow=none;html=1;entryX=1;entryY=0.75;entryDx=0;entryDy=0;exitX=0;exitY=0;exitDx=0;exitDy=0;" parent="1" source="-JSyuyc6FNK8s3EoQKlf-80" target="-JSyuyc6FNK8s3EoQKlf-14" edge="1">
          <mxGeometry width="50" height="50" relative="1" as="geometry">
            <mxPoint x="670" y="320" as="sourcePoint" />
            <mxPoint x="720" y="270" as="targetPoint" />
          </mxGeometry>
        </mxCell>
        <mxCell id="-JSyuyc6FNK8s3EoQKlf-85" value="附加产品" style="text;html=1;align=center;verticalAlign=middle;resizable=0;points=[];labelBackgroundColor=#ffffff;" parent="-JSyuyc6FNK8s3EoQKlf-82" vertex="1" connectable="0">
          <mxGeometry x="-0.0467" y="-2" relative="1" as="geometry">
            <mxPoint as="offset" />
          </mxGeometry>
        </mxCell>
        <mxCell id="-JSyuyc6FNK8s3EoQKlf-83" value="1" style="text;html=1;align=center;verticalAlign=middle;resizable=0;points=[];autosize=1;" parent="1" vertex="1">
          <mxGeometry x="533" y="225" width="20" height="20" as="geometry" />
        </mxCell>
        <mxCell id="-JSyuyc6FNK8s3EoQKlf-84" value="N" style="text;html=1;align=center;verticalAlign=middle;resizable=0;points=[];autosize=1;" parent="1" vertex="1">
          <mxGeometry x="700" y="380" width="20" height="20" as="geometry" />
        </mxCell>
      </root>
    </mxGraphModel>
  </diagram>
</mxfile>
